<svg height="512pt" viewBox="0 0 512 512" width="512pt" xmlns="http://www.w3.org/2000/svg" xmlns:xlink="http://www.w3.org/1999/xlink"><linearGradient id="a" gradientTransform="matrix(1 0 0 -1 0 -15158)" gradientUnits="userSpaceOnUse" x1="0" x2="512" y1="-15414" y2="-15414"><stop offset="0" stop-color="#00f38d"/><stop offset="1" stop-color="#009eff"/></linearGradient><path d="m512 256c0 141.386719-114.613281 256-256 256s-256-114.613281-256-256 114.613281-256 256-256 256 114.613281 256 256zm0 0" fill="url(#a)"/><g fill="#fff"><path d="m241 56h30v215h-30zm0 0"/><path d="m407.542969 147.734375c-25.234375-32.671875-60.933594-56.683594-100.519531-67.605469l-7.980469 28.917969c69.671875 19.226563 118.335937 83.203125 118.335937 155.574219 0 88.984375-72.394531 161.378906-161.378906 161.378906s-161.378906-72.394531-161.378906-161.378906c0-72.371094 48.660156-136.34375 118.335937-155.574219l-7.980469-28.917969c-39.585937 10.925782-75.285156 34.933594-100.519531 67.605469-26.058593 33.738281-39.835937 74.15625-39.835937 116.886719 0 105.527344 85.855468 191.378906 191.378906 191.378906s191.378906-85.851562 191.378906-191.378906c0-42.726563-13.777344-83.148438-39.835937-116.886719zm0 0"/></g></svg>